Coordinates
version=1
nRows=9
nColumns=36
inDegrees=yes

Units are S.I. units (second, meters, Newtons, ...)
If the header above contains a line with 'inDegrees', this indicates whether rotational values are in degrees (yes) or radians (no).

endheader
time	pelvis_tilt	pelvis_list	pelvis_rotation	pelvis_tx	pelvis_ty	pelvis_tz	hip_flexion_r	hip_adduction_r	hip_rotation_r	knee_angle_r	knee_angle_r_beta	ankle_angle_r	subtalar_angle_r	mtp_angle_r	hip_flexion_l	hip_adduction_l	hip_rotation_l	knee_angle_l	knee_angle_l_beta	ankle_angle_l	subtalar_angle_l	mtp_angle_l	lumbar_extension	lumbar_bending	lumbar_rotation	arm_flex_r	arm_add_r	arm_rot_r	elbow_flex_r	pro_sup_r	arm_flex_l	arm_add_l	arm_rot_l	elbow_flex_l	pro_sup_l
      0.00000000	      5.23284055	     -4.58357963	      7.27389416	      0.41630077	      0.94326981	     -0.20627174	     15.22818986	     -0.58149118	     -5.83655697	     52.70911707	      0.91994764	     -8.00023936	    -27.51870704	     -6.51363476	      0.78002253	      4.01114591	      3.14767862	     14.90545555	      0.26014928	     16.04856662	    -10.07767272	     -6.51363476	     -0.94964262	      1.80817047	      2.97958831	     43.83864641	     12.73793485	     65.34100984	    114.92844818	    104.33739742	     37.18835304	     13.86158381	     66.42302577	    118.61081920	    103.42209198
      0.01666670	      5.75657959	     -3.82946066	      8.79243930	      0.41787653	      0.93799323	     -0.20643401	     14.14343184	     -1.64540508	     -7.17735169	     52.19017912	      0.91089046	     -4.28307052	    -24.50393496	     -6.65680751	     -0.99555724	      4.84705443	      4.13962983	     12.97556466	      0.22646633	     15.24516234	    -10.15036245	     -6.65680751	     -1.33560260	      1.53479319	      1.94276852	     46.23917486	     13.51343428	     67.45389794	    115.42567991	    102.05690018	     38.38259490	     12.43893329	     69.00198489	    125.59395576	     98.33485845
      0.03333330	      4.69648979	     -3.31569920	      9.07822136	      0.41989197	      0.93362069	     -0.20621578	     15.28508230	     -2.52131689	     -7.23378612	     52.47918232	      0.91593452	     -1.80594063	    -24.18480916	     -6.70220988	     -0.41075437	      5.78918180	      3.72546697	     12.11446392	      0.21143728	     14.97702058	     -8.09981806	     -6.70220988	      0.19143786	      0.76890469	      2.67207065	     45.65702993	     13.23839415	     67.86488665	    116.19698792	    102.65280146	     38.11507478	     11.45786311	     69.04745099	    127.85690837	     96.44973112
      0.05000000	      4.26161526	     -2.86554407	      9.68478754	      0.41477209	      0.93467979	     -0.20899426	     16.22315013	     -3.41493454	     -7.26591672	     53.64772065	      0.93632936	      0.04021192	    -23.64942451	     -6.73274587	     -0.21533114	      6.68206249	      4.75627828	     11.47602851	      0.20029448	     14.47013333	     -8.08033412	     -6.73274587	      0.48392981	      0.04328281	      3.12933766	     45.09168413	     12.38750102	     68.01422913	    116.71584646	    102.52993346	     38.33584043	     11.29819483	     69.26237927	    127.41836602	     94.63258460
      0.06666670	      4.12954533	     -2.61946897	      9.75698012	      0.42079107	      0.93369749	     -0.20628973	     16.26867841	     -3.61830256	     -7.30329288	     53.81308093	      0.93921544	      0.49501801	    -23.80059623	     -6.73686417	     -0.54966433	      6.87440325	      5.04709173	     10.77508553	      0.18806072	     13.99095233	     -7.64385457	     -6.73686417	      0.57054432	     -0.30238249	      3.34922910	     44.22152130	     12.42601641	     68.54141616	    116.45481935	    102.48650825	     37.99808991	     11.35851156	     69.39100167	    127.57974531	     94.33825227
      0.08333330	      4.07482222	     -2.43124391	      9.64565102	      0.42004760	      0.93775504	     -0.20590130	     16.21387676	     -3.63960412	     -7.26136871	     53.46947714	      0.93321843	      1.40498169	    -23.53856139	     -6.95818513	     -0.86646734	      7.01295249	      5.38358641	     10.13918585	      0.17696218	     13.22899386	     -8.03879790	     -6.95818513	      0.48853013	     -0.64233088	      3.80069818	     43.77373566	     12.40709228	     68.58604302	    116.03531342	     99.43845979	     37.66729497	     11.44252244	     69.92744998	    127.18894157	     83.87142777
      0.10000000	      4.25647257	     -2.37080928	      9.53925836	      0.42054000	      0.93571054	     -0.20574726	     15.98395981	     -3.60340581	     -7.26525763	     53.49706492	      0.93369992	      1.23707496	    -23.62234939	     -6.97996161	     -1.23755026	      6.92215903	      5.36814790	      9.87644531	      0.17237649	     12.88766336	     -8.04950836	     -6.97996161	      0.00767401	     -0.73517394	      3.74737058	     43.94982719	     12.65190380	     68.32445851	    115.50770295	     98.99977509	     37.72704640	     11.83086680	     69.76399873	    126.70855219	     83.29087671
      0.11666670	      4.49105630	     -2.32518256	      9.37005884	      0.42019966	      0.93361594	     -0.20590201	     15.94952368	     -3.60844824	     -7.04009407	     53.88202628	      0.94041877	      1.04486666	    -23.78883510	     -7.00518191	     -1.54764666	      6.94261805	      5.60226924	      9.79567169	      0.17096672	     12.94131651	     -8.27155869	     -7.00518191	     -0.26678922	     -0.76065896	      3.77897881	     44.27365816	     12.89424161	     68.09157147	    115.40262314	     98.31742607	     37.94566374	     12.30035854	     69.37418781	    126.31336493	     82.60437166
      0.13333330	      4.62998578	     -2.30213675	      9.54846834	      0.42058392	      0.93232627	     -0.20598191	     15.94715691	     -3.62602554	     -7.03406102	     54.16809011	      0.94541152	      0.89232105	    -24.40275557	     -7.03666763	     -1.68434839	      6.91919734	      6.01423170	      9.82684531	      0.17151081	     13.11305172	     -8.67489521	     -7.03666763	     -0.47323140	     -0.87150035	      3.78972662	     44.50260653	     12.94478855	     67.43240926	    115.29579701	     97.62181770	     38.00490614	     12.52900271	     69.25538511	    126.17395444	     81.39736051
